HIERARCHY
ROOT hip
{
  OFFSET 0 0 0
  CHANNELS 6 Xposition Yposition Zposition Zrotation Yrotation Xrotation
  JOINT abdomen
  {
    OFFSET 0 20.6881 -0.73152
    CHANNELS 3 Zrotation Xrotation Yrotation
    JOINT chest
    {
      OFFSET 0 11.7043 -0.48768
      CHANNELS 3 Zrotation Xrotation Yrotation
      JOINT neck
      {
        OFFSET 0 22.1894 -2.19456
        CHANNELS 3 Zrotation Xrotation Yrotation
        JOINT head
        {
          OFFSET -0.24384 7.07133 1.2192
          CHANNELS 3 Zrotation Xrotation Yrotation
          JOINT leftEye
          {
            OFFSET 4.14528 8.04674 8.04672
            CHANNELS 3 Zrotation Xrotation Yrotation
            End Site
            {
              OFFSET 1 0 0
            }
          }
          JOINT rightEye
          {
            OFFSET -3.6576 8.04674 8.04672
            CHANNELS 3 Zrotation Xrotation Yrotation
            End Site
            {
              OFFSET 1 0 0
            }
          }
        }
      }
      JOINT rCollar
      {
        OFFSET -2.68224 19.2634 -4.8768
        CHANNELS 3 Zrotation Xrotation Yrotation
        JOINT rShldr
        {
          OFFSET -8.77824 -1.95073 1.46304
          CHANNELS 3 Zrotation Xrotation Yrotation
          JOINT rForeArm
          {
            OFFSET -28.1742 -1.7115 0.48768
            CHANNELS 3 Zrotation Xrotation Yrotation
            JOINT rHand
            {
              OFFSET -22.5879 0.773209 7.07136
              CHANNELS 3 Zrotation Xrotation Yrotation
              JOINT rThumb1
              {
                OFFSET -1.2192 -0.487915 3.41376
                CHANNELS 3 Zrotation Xrotation Yrotation
                JOINT rThumb2
                {
                  OFFSET -3.37035 -0.52449 3.41376
                  CHANNELS 3 Zrotation Xrotation Yrotation
                  End Site
                  {
                    OFFSET -1.78271 -1.18214 1.43049
                  }
                }
              }
              JOINT rIndex1
              {
                OFFSET -7.75947 0.938293 5.60832
                CHANNELS 3 Zrotation Xrotation Yrotation
                JOINT rIndex2
                {
                  OFFSET -2.54057 -0.884171 1.56538
                  CHANNELS 3 Zrotation Xrotation Yrotation
                  End Site
                  {
                    OFFSET -1.62519 -0.234802 1.16502
                  }
                }
              }
              JOINT rMid1
              {
                OFFSET -8.24714 1.18213 3.41376
                CHANNELS 3 Zrotation Xrotation Yrotation
                JOINT rMid2
                {
                  OFFSET -3.10165 -0.590103 1.0647
                  CHANNELS 3 Zrotation Xrotation Yrotation
                  End Site
                  {
                    OFFSET -2.48547 -0.328903 0.83742
                  }
                }
              }
              JOINT rRing1
              {
                OFFSET -8.82822 0.546677 1.51678
                CHANNELS 3 Zrotation Xrotation Yrotation
                JOINT rRing2
                {
                  OFFSET -2.60934 -0.819778 -0.0198488
                  CHANNELS 3 Zrotation Xrotation Yrotation
                  End Site
                  {
                    OFFSET -2.33842 -0.294052 0.168128
                  }
                }
              }
              JOINT rPinky1
              {
                OFFSET -8.27202 -0.0477905 -0.4584
                CHANNELS 3 Zrotation Xrotation Yrotation
                JOINT rPinky2
                {
                  OFFSET -1.82734 -0.647385 -0.700984
                  CHANNELS 3 Zrotation Xrotation Yrotation
                  End Site
                  {
                    OFFSET -1.69225 -0.51767 -0.607171
                  }
                }
              }
            }
          }
        }
      }
      JOINT lCollar
      {
        OFFSET 2.68224 19.2634 -4.8768
        CHANNELS 3 Zrotation Xrotation Yrotation
        JOINT lShldr
        {
          OFFSET 8.77824 -1.95073 1.46304
          CHANNELS 3 Zrotation Xrotation Yrotation
          JOINT lForeArm
          {
            OFFSET 28.1742 -1.7115 0.48768
            CHANNELS 3 Zrotation Xrotation Yrotation
            JOINT lHand
            {
              OFFSET 22.5879 0.773209 7.07136
              CHANNELS 3 Zrotation Xrotation Yrotation
              JOINT lThumb1
              {
                OFFSET 1.2192 -0.487915 3.41376
                CHANNELS 3 Zrotation Xrotation Yrotation
                JOINT lThumb2
                {
                  OFFSET 3.37035 -0.52449 3.41376
                  CHANNELS 3 Zrotation Xrotation Yrotation
                  End Site
                  {
                    OFFSET 1.78271 -1.18214 1.43049
                  }
                }
              }
              JOINT lIndex1
              {
                OFFSET 7.75947 0.938293 5.60832
                CHANNELS 3 Zrotation Xrotation Yrotation
                JOINT lIndex2
                {
                  OFFSET 2.54057 -0.884171 1.56538
                  CHANNELS 3 Zrotation Xrotation Yrotation
                  End Site
                  {
                    OFFSET 1.62519 -0.234802 1.16502
                  }
                }
              }
              JOINT lMid1
              {
                OFFSET 8.24714 1.18213 3.41376
                CHANNELS 3 Zrotation Xrotation Yrotation
                JOINT lMid2
                {
                  OFFSET 3.10165 -0.590103 1.0647
                  CHANNELS 3 Zrotation Xrotation Yrotation
                  End Site
                  {
                    OFFSET 2.48547 -0.328903 0.83742
                  }
                }
              }
              JOINT lRing1
              {
                OFFSET 8.82822 0.546677 1.51678
                CHANNELS 3 Zrotation Xrotation Yrotation
                JOINT lRing2
                {
                  OFFSET 2.60934 -0.819778 -0.0198488
                  CHANNELS 3 Zrotation Xrotation Yrotation
                  End Site
                  {
                    OFFSET 2.33842 -0.294052 0.168128
                  }
                }
              }
              JOINT lPinky1
              {
                OFFSET 8.27202 -0.0477905 -0.4584
                CHANNELS 3 Zrotation Xrotation Yrotation
                JOINT lPinky2
                {
                  OFFSET 1.82734 -0.647385 -0.700984
                  CHANNELS 3 Zrotation Xrotation Yrotation
                  End Site
                  {
                    OFFSET 1.69225 -0.51767 -0.607171
                  }
                }
              }
            }
          }
        }
      }
    }
  }
  JOINT rButtock
  {
    OFFSET -8.77824 4.35084 1.2192
    CHANNELS 3 Zrotation Xrotation Yrotation
    JOINT rThigh
    {
      OFFSET 0 -1.70687 -2.19456
      CHANNELS 3 Zrotation Xrotation Yrotation
      JOINT rShin
      {
        OFFSET 0 -36.8199 0.73152
        CHANNELS 3 Zrotation Xrotation Yrotation
        JOINT rFoot
        {
          OFFSET 0.73152 -45.1104 -5.12064
          CHANNELS 3 Zrotation Xrotation Yrotation
          End Site
          {
            OFFSET -1.1221 -3.69964 12.103
          }
        }
      }
    }
  }
  JOINT lButtock
  {
    OFFSET 8.77824 4.35084 1.2192
    CHANNELS 3 Zrotation Xrotation Yrotation
    JOINT lThigh
    {
      OFFSET 0 -1.70687 -2.19456
      CHANNELS 3 Zrotation Xrotation Yrotation
      JOINT lShin
      {
        OFFSET 0 -36.8199 0.73152
        CHANNELS 3 Zrotation Xrotation Yrotation
        JOINT lFoot
        {
          OFFSET -0.73152 -45.1104 -5.12064
          CHANNELS 3 Zrotation Xrotation Yrotation
          End Site
          {
            OFFSET 1.1221 -3.69964 12.103
          }
        }
      }
    }
  }
}
MOTION
Frames:	7
Frame Time:	0.00833333
4.21661 81.5482 21.6163 540.587 -141.137 545.633 4.92212 -14.899 3.34807 -2.35128 3.2286 0.883887 -4.89784 11.6989 -10.4331 2.32858 -4.93831 -20.1257 -0.0 0.0 0.0 -0.0 0.0 0.0 -1.30262e-13 -3.96944e-14 -8.46071e-13 43.4779 65.8698 57.6158 -26.7795 -44.5254 92.575 -5.93937 -54.8069 -11.4671 -4.74658e-09 -9.60849e-09 3.94906e-10 -8.17403e-09 -1.63165e-08 4.50737e-10 -4.74659e-09 -9.6085e-09 3.94889e-10 7.73091 5.47488 0.417314 -4.74659e-09 -9.60849e-09 3.94903e-10 2.90554 0.965183 0.102902 -4.74658e-09 -9.60849e-09 3.94906e-10 10.2786 0.731801 0.0259123 -4.74659e-09 -9.60849e-09 3.94911e-10 2.22167 -0.733487 -0.20892 -1.30293e-13 -3.96827e-14 -8.46318e-13 -31.7092 38.6752 -35.4467 27.3725 -42.9375 -89.3582 6.25809 -55.5601 11.8372 1.15299e-09 -5.36955e-11 7.0814e-10 1.95543e-09 -8.91478e-11 1.26715e-09 1.15298e-09 -5.36997e-11 7.08142e-10 -7.73091 5.47488 -0.417314 1.15299e-09 -5.36981e-11 7.08141e-10 -2.90554 0.965183 -0.102902 1.15297e-09 -5.36987e-11 7.08143e-10 -10.2786 0.731801 -0.0259123 1.15298e-09 -5.36946e-11 7.0814e-10 -2.22167 -0.733487 0.20892 -2.03217e-16 0.0 -3.88251e-19 -0.208018 -3.82014 3.44284 0.0368678 16.7724 0.578662 -9.39828 -14.4724 -29.2007 2.03217e-16 0.0 3.88251e-19 9.22038 -27.1779 23.9479 0.189148 31.3359 -0.692494 3.87083 -8.67035 13.4174
4.02417 81.3832 22.556 540.947 -142.621 545.381 4.80665 -15.4054 3.31658 -2.36732 3.3689 0.875823 -5.2457 11.8546 -10.7293 2.65326 -4.45811 -20.6818 -0.0 0.0 0.0 -0.0 0.0 0.0 -2.04776e-13 -1.16095e-13 -1.09724e-12 45.9833 63.8357 56.2841 -27.0445 -43.8951 91.2362 -6.95027 -57.3523 -12.6712 -5.99505e-09 -1.21548e-08 5.50328e-10 -1.03254e-08 -2.06463e-08 6.59998e-10 -5.99506e-09 -1.21548e-08 5.50312e-10 7.73091 5.47488 0.417314 -5.99506e-09 -1.21548e-08 5.50325e-10 2.90554 0.965183 0.102902 -5.99505e-09 -1.21548e-08 5.50328e-10 10.2786 0.731801 0.0259123 -5.99506e-09 -1.21548e-08 5.50331e-10 2.22167 -0.733487 -0.20892 -2.04833e-13 -1.16086e-13 -1.09749e-12 -30.9449 37.2353 -36.3574 27.4207 -42.7723 -89.051 6.18872 -55.4042 11.7568 1.20577e-09 -6.31817e-11 7.91192e-10 2.0442e-09 -1.04799e-10 1.41256e-09 1.20576e-09 -6.31821e-11 7.91195e-10 -7.73091 5.47488 -0.417314 1.20577e-09 -6.31834e-11 7.91192e-10 -2.90554 0.965183 -0.102902 1.20576e-09 -6.31814e-11 7.91194e-10 -10.2786 0.731801 -0.0259123 1.20576e-09 -6.31809e-11 7.91188e-10 -2.22167 -0.733487 0.20892 -2.03217e-16 0.0 -3.88251e-19 -0.675149 -3.32187 2.85886 0.0333861 17.3049 0.590513 -9.67695 -14.6026 -29.5947 2.03217e-16 0.0 3.88251e-19 8.10381 -26.3538 23.5316 0.179592 30.6372 -0.679537 3.84753 -9.46972 12.6869
3.82851 81.2223 23.4555 541.132 -144.147 545.167 4.56176 -15.6593 3.19051 -2.38519 3.4347 0.845 -5.51842 12.0173 -11.0115 2.98507 -4.16094 -21.2138 -0.0 0.0 0.0 -0.0 0.0 0.0 -1.95193e-13 -1.30824e-13 -1.12775e-12 48.5466 61.7078 54.9768 -27.3225 -43.1333 89.6978 -7.78094 -59.1884 -13.6421 -6.28412e-09 -1.28007e-08 6.17793e-10 -1.08226e-08 -2.17395e-08 7.58769e-10 -6.28413e-09 -1.28007e-08 6.17778e-10 7.73091 5.47488 0.417314 -6.28413e-09 -1.28007e-08 6.17792e-10 2.90554 0.965183 0.102902 -6.28412e-09 -1.28007e-08 6.17793e-10 10.2786 0.731801 0.0259123 -6.28413e-09 -1.28007e-08 6.17798e-10 2.22167 -0.733487 -0.20892 -1.95292e-13 -1.30821e-13 -1.12801e-12 -30.0711 36.2242 -37.5237 27.4482 -42.6746 -88.8714 6.03101 -54.9682 11.5647 1.05352e-09 3.2549e-11 8.772e-10 1.77892e-09 5.51754e-11 1.55233e-09 1.05351e-09 3.25509e-11 8.77204e-10 -7.73091 5.47488 -0.417314 1.05352e-09 3.2549e-11 8.77198e-10 -2.90554 0.965183 -0.102902 1.05351e-09 3.25509e-11 8.77201e-10 -10.2786 0.731801 -0.0259123 1.05352e-09 3.25499e-11 8.77193e-10 -2.22167 -0.733487 0.20892 -2.03217e-16 0.0 -3.88251e-19 -1.18938 -3.15948 2.30844 0.0273 18.5794 0.620697 -9.96067 -14.8356 -29.6928 2.03217e-16 0.0 3.88251e-19 6.73567 -25.8511 22.2444 0.173431 30.1927 -0.668773 3.93607 -10.0201 12.6023
3.67548 81.096 24.306 541.337 -145.63 544.891 4.2533 -15.7475 2.9435 -2.38967 3.44179 0.781947 -5.76407 12.1786 -11.2595 3.31795 -3.96286 -21.6813 -0.0 0.0 0.0 -0.0 0.0 0.0 -1.34894e-13 -1.10001e-13 -1.02724e-12 51.1368 59.4053 53.7119 -27.5838 -42.2078 87.998 -8.52571 -60.6852 -14.5036 -5.94066e-09 -1.21388e-08 6.45833e-10 -1.02296e-08 -2.06016e-08 8.16335e-10 -5.94066e-09 -1.21388e-08 6.45817e-10 7.73091 5.47488 0.417314 -5.94066e-09 -1.21388e-08 6.45835e-10 2.90554 0.965183 0.102902 -5.94065e-09 -1.21388e-08 6.45832e-10 10.2786 0.731801 0.0259123 -5.94067e-09 -1.21388e-08 6.45841e-10 2.22167 -0.733487 -0.20892 -1.35046e-13 -1.10005e-13 -1.02752e-12 -29.186 35.4934 -38.8739 27.4653 -42.6133 -88.7585 5.87779 -54.5331 11.3772 7.5955e-10 1.856e-10 9.48461e-10 1.26988e-09 3.12936e-10 1.65969e-09 7.59547e-10 1.85603e-10 9.48466e-10 -7.73091 5.47488 -0.417314 7.59551e-10 1.85602e-10 9.48457e-10 -2.90554 0.965183 -0.102902 7.59542e-10 1.85603e-10 9.4846e-10 -10.2786 0.731801 -0.0259123 7.59552e-10 1.85601e-10 9.4845e-10 -2.22167 -0.733487 0.20892 -2.03217e-16 0.0 -3.88251e-19 -1.73653 -3.29296 1.75765 0.016966 20.4679 0.665578 -10.2438 -15.1438 -29.5649 2.03217e-16 0.0 3.88251e-19 5.19173 -25.5981 20.2644 0.171299 30.1267 -0.662941 4.10867 -10.459 12.8863
3.64174 81.0325 25.1117 541.735 -147.007 544.488 3.93991 -15.7084 2.69058 -2.39671 3.41575 0.716292 -5.96545 12.331 -11.489 3.62158 -3.79451 -22.1166 -0.0 0.0 0.0 -0.0 0.0 0.0 -6.68683e-14 -7.67167e-14 -8.98912e-13 53.6321 56.9421 52.5537 -27.8252 -41.184 86.1476 -9.1395 -61.8174 -15.207 -5.33927e-09 -1.09368e-08 6.15143e-10 -9.19022e-09 -1.85469e-08 7.85208e-10 -5.33927e-09 -1.09368e-08 6.15127e-10 7.73091 5.47488 0.417314 -5.33928e-09 -1.09368e-08 6.15148e-10 2.90554 0.965183 0.102902 -5.33927e-09 -1.09368e-08 6.15142e-10 10.2786 0.731801 0.0259123 -5.33929e-09 -1.09368e-08 6.15154e-10 2.22167 -0.733487 -0.20892 -6.70673e-14 -7.67275e-14 -8.99207e-13 -28.3529 35.0603 -40.2634 27.4671 -42.609 -88.7484 5.73961 -54.1297 11.2071 3.7873e-10 3.61092e-10 9.96604e-10 6.12215e-10 6.07485e-10 1.72372e-09 3.78729e-10 3.61097e-10 9.9661e-10 -7.73091 5.47488 -0.417314 3.78732e-10 3.61097e-10 9.96599e-10 -2.90554 0.965183 -0.102902 3.78724e-10 3.61095e-10 9.96602e-10 -10.2786 0.731801 -0.0259123 3.78736e-10 3.61093e-10 9.96591e-10 -2.22167 -0.733487 0.20892 -2.03217e-16 0.0 -3.88251e-19 -2.30498 -3.7236 1.0263 -0.00295221 22.8856 0.716312 -10.3822 -15.2374 -29.31 2.03217e-16 0.0 3.88251e-19 3.76774 -25.3476 18.3002 0.171439 30.2461 -0.656154 4.28548 -10.9014 13.1631
3.58534 80.994 25.8658 541.948 -148.161 544.098 3.67997 -15.5808 2.54675 -2.42213 3.38216 0.67766 -6.10529 12.467 -11.7153 3.86838 -3.58748 -22.552 -0.0 0.0 0.0 -0.0 0.0 0.0 -3.41059e-14 -5.40632e-14 -8.45928e-13 55.9307 54.3352 51.5461 -28.0533 -40.1231 84.1426 -9.57791 -62.559 -15.7034 -4.8546e-09 -9.96232e-09 5.06417e-10 -8.34848e-09 -1.689e-08 6.179e-10 -4.8546e-09 -9.96232e-09 5.06402e-10 7.73091 5.47488 0.417314 -4.85461e-09 -9.96233e-09 5.06424e-10 2.90554 0.965183 0.102902 -4.85459e-09 -9.96233e-09 5.06417e-10 10.2786 0.731801 0.0259123 -4.85462e-09 -9.96233e-09 5.0643e-10 2.22167 -0.733487 -0.20892 -3.43279e-14 -5.40768e-14 -8.46226e-13 -27.6276 34.949 -41.5575 27.4481 -42.6819 -88.8781 5.62588 -53.7887 11.0663 -3.40796e-11 5.24146e-10 1.01326e-09 -9.89316e-11 8.77824e-10 1.73352e-09 -3.40796e-11 5.24152e-10 1.01327e-09 -7.73091 5.47488 -0.417314 -3.40765e-11 5.24152e-10 1.01325e-09 -2.90554 0.965183 -0.102902 -3.40836e-11 5.2415e-10 1.01326e-09 -10.2786 0.731801 -0.0259123 -3.40711e-11 5.24147e-10 1.01325e-09 -2.22167 -0.733487 0.20892 -2.03217e-16 0.0 -3.88251e-19 -2.89234 -4.45187 -0.0664873 -0.0363524 25.7478 0.763792 -10.2393 -14.8234 -29.0287 2.03217e-16 0.0 3.88251e-19 2.76293 -24.8911 17.0696 0.172206 30.3579 -0.642606 4.37547 -11.4657 13.0552
3.48431 80.9752 26.5899 542.012 -149.153 543.641 3.53902 -15.3284 2.59352 -2.49654 3.34263 0.687185 -6.15095 12.5907 -11.9404 4.02513 -3.32688 -22.9952 -0.0 0.0 0.0 -0.0 0.0 0.0 -6.23491e-14 -4.79211e-14 -9.4103e-13 58.0687 51.6208 50.683 -28.2599 -38.9551 81.942 -9.78084 -62.8739 -15.9297 -4.59955e-09 -9.44276e-09 2.50247e-10 -7.89461e-09 -1.60259e-08 1.91473e-10 -4.59955e-09 -9.44277e-09 2.50232e-10 7.73091 5.47488 0.417314 -4.59956e-09 -9.44278e-09 2.50252e-10 2.90554 0.965183 0.102902 -4.59955e-09 -9.44278e-09 2.50247e-10 10.2786 0.731801 0.0259123 -4.59957e-09 -9.44278e-09 2.5026e-10 2.22167 -0.733487 -0.20892 -6.25577e-14 -4.79315e-14 -9.41311e-13 -27.0141 35.2458 -42.7607 27.3958 -42.8658 -89.2171 5.53099 -53.4986 10.9484 -5.90512e-10 7.0721e-10 9.9379e-10 -1.05524e-09 1.17484e-09 1.67706e-09 -5.90511e-10 7.07217e-10 9.93797e-10 -7.73091 5.47488 -0.417314 -5.90508e-10 7.07217e-10 9.93785e-10 -2.90554 0.965183 -0.102902 -5.90513e-10 7.07215e-10 9.93785e-10 -10.2786 0.731801 -0.0259123 -5.90503e-10 7.07212e-10 9.93774e-10 -2.22167 -0.733487 0.20892 -2.03217e-16 0.0 -3.88251e-19 -3.53603 -5.51967 -1.66116 -0.0867546 29.2061 0.805981 -9.71684 -13.6089 -28.8307 2.03217e-16 0.0 3.88251e-19 2.38978 -24.1633 16.9793 0.174371 30.4827 -0.61959 4.31183 -12.2491 12.3277
